# xmcd CD database file
#
# Track frame offsets:
#	151
#	19864
#	45735
#	60941
#	78774
#	114970
#	132205
#	148473
#	174030
#	194844
#	207879
#	231179
#
# Disc length: 3368 seconds
#
# Revision: 0
# Processed by: cddbd v1.4PL0 Copyright (c) Steve Scherf et al.
# Submitted via: CDex 1.50beta9
#
DISCID=9f0d260c
DTITLE=Spirit of Freedom - Stuff Your Decommission
DYEAR=1900
DGENRE=Country
TTITLE0=Stuff Your Decommission
TTITLE1=Eddie Fullerton
TTITLE2=The Men Behind the Wire
TTITLE3=McElwee's Farewell
TTITLE4=Merry Ploughboy/Auf Wediersehn
TTITLE5=Botany Bay
TTITLE6=Go On Home
TTITLE7=Gerard Casey
TTITLE8=Sean South
TTITLE9=Streets of Ulster
TTITLE10=Shoot to Kill
TTITLE11=My Old Man
EXTD=
EXTT0=
EXTT1=
EXTT2=
EXTT3=
EXTT4=
EXTT5=
EXTT6=
EXTT7=
EXTT8=
EXTT9=
EXTT10=
EXTT11=
PLAYORDER=
